# xmcd CD database file
#
# Track frame offsets:
#	150
#	37210
#	65545
#	93017
#	126380
#	157155
#	194285
#	215080
#	241575
#	260787
#	288225
#	313070
#
# Disc length: 4634 seconds
#
# Revision: 6
# Processed by: cddbd v1.5.2PL0 Copyright (c) Steve Scherf et al.
# Submitted via: CDex 2.12
#
DISCID=b8114d0c,b812180c,d012180c
DTITLE=Various Artist - Rave Mission Classics Vol.1 CD 2
DYEAR=1998
DGENRE=Techno /Trance
TTITLE0=Future Breeze - Heulender Wolf
TTITLE1=Emmanuel Top - Rubycon
TTITLE2=Wax Trax - Meditation, Spiritualism and Love
TTITLE3=Nostrum - Brainchild
TTITLE4=Maga lo Mania - Time
TTITLE5=Possible Words - Nothing is over
TTITLE6=Final Fantasy - I wanna dance
TTITLE7=DJ Khetama - Green Flow
TTITLE8=Secret Alloy - Lost Souls
TTITLE9=Faxe Inc - Dark Melody
TTITLE10=Magnetic Slides - Alright
TTITLE11=Karma - Ganesha
EXTD=YEAR: 1998
EXTT0=
EXTT1=
EXTT2=
EXTT3=
EXTT4=
EXTT5=
EXTT6=
EXTT7=
EXTT8=
EXTT9=
EXTT10=
EXTT11=
PLAYORDER=
